<?xml version="1.0" encoding="UTF-8"?>
<svg width="78px" height="63px" viewBox="0 0 78 63" version="1.1" xmlns="http://www.w3.org/2000/svg" xmlns:xlink="http://www.w3.org/1999/xlink">
    <!-- Generator: Sketch 50.2 (55047) - http://www.bohemiancoding.com/sketch -->
    <title>08beach</title>
    <desc>Created with Sketch.</desc>
    <defs></defs>
    <g id="Page-1" stroke="none" stroke-width="1" fill="none" fill-rule="evenodd">
        <g id="Lets-go" transform="translate(-330.000000, -3238.000000)" fill="#000000" fill-rule="nonzero">
            <g id="cta" transform="translate(0.000000, 3048.000000)">
                <g id="08beach" transform="translate(330.000000, 190.000000)">
                    <path d="M19.1,14.6 C23,14.6 26.1,11.5 26.1,7.6 C26.1,3.7 23,0.6 19.1,0.6 C15.2,0.6 12.1,3.7 12.1,7.6 C12.1,11.5 15.3,14.6 19.1,14.6 Z M19.1,2.6 C21.9,2.6 24.1,4.8 24.1,7.6 C24.1,10.4 21.9,12.6 19.1,12.6 C16.3,12.6 14.1,10.4 14.1,7.6 C14.1,4.8 16.4,2.6 19.1,2.6 Z" id="Shape"></path>
                    <path d="M60.5,11 C58.7,10.5 56.9,10.2 55.1,10.2 C44.2,10.2 34.9,16.9 32.6,26.5 C32.5,27 32.8,27.6 33.3,27.7 C33.7,27.8 34.1,27.7 34.3,27.4 C37,24.2 40.9,22.4 45,22.4 C52.8,22.5 59,28.8 59,36.6 C59,43.2 54.8,50.5 48.6,50.5 L26.5,50.5 C26.5,50.4 15.9,39.8 15.9,39.8 L22,33.7 C22.4,33.3 22.4,32.7 22,32.3 C22,32.3 21.9,32.2 21.9,32.2 C17.6,28.7 11.3,29.4 7.8,33.7 C4.8,37.4 4.8,42.6 7.8,46.3 C8,46.5 8.2,46.7 8.5,46.7 C8.8,46.7 9,46.6 9.2,46.4 L14.3,41.3 L23.6,50.6 L10.6,50.6 C4.7,50.6 -7.10542736e-15,55.4 -7.10542736e-15,61.2 C-7.10542736e-15,61.2 -7.10542736e-15,61.2 -7.10542736e-15,61.2 C-7.10542736e-15,61.8 0.4,62.2 1,62.2 C1.6,62.2 2,61.8 2,61.2 C2,56.5 5.8,52.6 10.5,52.5 L48.5,52.5 C55.9,52.5 60.9,44.3 60.9,36.6 C60.9,27.7 53.8,20.4 44.9,20.3 C41.6,20.3 38.4,21.3 35.7,23.2 C39,16.6 46.3,12.3 55,12.3 C57,12.4 58.9,12.7 60.8,13.3 C68.5,16 74,22.9 75,31 C75,31.5 75.1,32.1 75.1,32.6 C75.1,33.2 75.5,33.6 76.1,33.6 C76.7,33.6 77.1,33.2 77.1,32.6 C77.1,22.5 70.3,13.6 60.5,11 Z M8.8,44.2 C6.5,40.4 7.7,35.5 11.4,33.2 C14,31.6 17.2,31.6 19.8,33.2 L8.8,44.2 Z" id="Shape"></path>
                </g>
            </g>
        </g>
    </g>
</svg>