<?xml version="1.0" encoding="UTF-8"?>
<svg width="106px" height="41px" viewBox="0 0 106 41" version="1.1" xmlns="http://www.w3.org/2000/svg" xmlns:xlink="http://www.w3.org/1999/xlink">
    <!-- Generator: Sketch 50.2 (55047) - http://www.bohemiancoding.com/sketch -->
    <title>logo</title>
    <desc>Created with Sketch.</desc>
    <defs>
        <polygon id="path-1" points="0.095044091 0.191733517 20.5805777 0.191733517 20.5805777 28 0.095044091 28"></polygon>
        <polygon id="path-3" points="0.0844451372 0.296575541 13.8904348 0.296575541 13.8904348 14.9521023 0.0844451372 14.9521023"></polygon>
    </defs>
    <g id="Page-1" stroke="none" stroke-width="1" fill="none" fill-rule="evenodd">
        <g id="Lets-go" transform="translate(-667.000000, -3339.000000)">
            <g id="FOOTER" transform="translate(0.000000, 3297.000000)">
                <g id="logo" transform="translate(667.000000, 42.000000)">
                    <path d="M4.15375009,11.0438401 C3.88899504,12.8300489 3.79461477,14.9938995 3.8687707,17.5347846 C3.94353949,20.0762768 4.21748742,22.4678052 4.69061451,24.7105841 C5.73124895,22.0397708 6.44951961,19.4387788 6.84481361,16.9045722 C7.23949476,14.3709728 7.21436754,12.1464082 6.77065768,10.229664 C6.42194096,8.72881145 5.93716955,8.04820638 5.31573061,8.19027738 C4.80460627,8.30624131 4.41727943,9.25763126 4.15375009,11.0438401 M14.423427,25.7718666 C14.6446691,25.9710088 14.8040124,26.2782222 14.9002313,26.6928995 C15.0834761,27.4833971 15.014223,28.1439665 14.6930849,28.6740006 C13.98033,29.9386753 13.1413262,31.0345648 12.1754605,31.961062 C11.2102077,32.8881663 10.0157457,33.5135215 8.59452583,33.8365205 C6.64011873,34.2803406 5.00807543,33.8207349 3.69778306,32.4546676 C2.38687783,31.0892075 1.44123651,29.1512134 0.8596334,26.6425068 C0.301318923,24.2327641 0.0145009489,21.4065228 0.000405193768,18.1656041 C-0.0149162792,14.9246854 0.404279222,12.042587 1.25676598,9.5187019 C2.11047846,6.99603102 3.48021814,5.51885696 5.36843647,5.08960827 C6.43481099,4.84735901 7.37493658,5.09628682 8.18881322,5.83639171 C9.00391559,6.57649659 9.60145303,7.76649296 9.98142556,9.40638081 C10.5262571,11.7572308 10.4251354,14.6502577 9.67867326,18.0854615 C8.93159823,21.5206653 7.65562596,25.0451188 5.8513693,28.6582149 C6.19395744,29.4329268 6.58373571,29.9526395 7.0194784,30.2167459 C7.45460824,30.4826736 7.96144256,30.548852 8.53814281,30.4171024 C9.44946402,30.2100673 10.1947005,29.7966043 10.7756907,29.175499 C11.3560681,28.5550009 12.0498244,27.5598968 12.8545082,26.1907939 C13.0567516,25.8544377 13.3251838,25.6474027 13.6579662,25.5721172 C13.9466228,25.5059388 14.2021849,25.5727243 14.423427,25.7718666" id="Fill-1" fill="#FFFFFF"></path>
                    <path d="M15.1943237,21.676384 C14.8059455,22.6104057 14.7208056,23.6663331 14.939487,24.845344 L14.9494005,24.9030578 C16.1565218,24.3948228 17.0726511,23.801195 17.696622,23.123352 C18.3205929,22.445509 18.5666824,21.7482318 18.4343073,21.0332871 C18.3660787,20.6663921 18.1992976,20.3925459 17.9345474,20.2123375 C17.6697971,20.0333068 17.3449823,19.9785376 16.9618525,20.0515632 C16.17285,20.2005591 15.5838681,20.7423624 15.1943237,21.676384 M26.5173548,22.9549219 C26.7202912,23.1563313 26.859081,23.4596234 26.9343074,23.8659758 C27.0777624,24.6386343 26.9862077,25.2764309 26.6602267,25.7781878 C26.0327569,26.7964246 25.0682261,27.80995 23.7660513,28.8158194 C22.4638765,29.8228667 20.9914217,30.4812755 19.3510197,30.7922234 C17.1134716,31.2150655 15.2742153,30.992455 13.8332507,30.1249809 C12.3928692,29.2569179 11.4954007,27.8670749 11.1408453,25.953685 C10.8935895,24.6203779 10.9717317,23.3200501 11.3764381,22.0532906 C11.7811444,20.7865311 12.469845,19.7111695 13.4419568,18.8266168 C14.4140685,17.943242 15.5931985,17.3702262 16.9781807,17.1075694 C18.2138764,16.8743584 19.2664629,17.0204097 20.1371064,17.5451344 C21.0065836,18.0716258 21.547164,18.9043538 21.7582645,20.0444962 C22.0055203,21.3778033 21.6912022,22.622184 20.8129777,23.7782272 C19.9359195,24.9348593 18.2914354,26.031422 15.8806917,27.0667373 C16.5781396,27.8552965 17.6727128,28.1085307 19.1649947,27.8258507 C20.1236939,27.6450533 21.159369,27.1338738 22.2726031,26.2929009 C23.3846709,25.452517 24.2967181,24.4548923 25.0093279,23.300027 C25.21518,22.9814231 25.4775977,22.791792 25.7971641,22.7305447 C26.0735774,22.6781311 26.3138353,22.7529235 26.5173548,22.9549219" id="Fill-3" fill="#FFFFFF"></path>
                    <path d="M30.0437917,7.18675284 C29.740379,7.96967315 29.498597,9.03136943 29.3166679,10.3706679 C29.1365166,11.7111401 29.0345889,13.1836642 29.0126626,14.78824 C30.1629049,13.6232499 30.9747708,12.3807894 31.447668,11.0602716 C31.9205651,9.74034074 32.0876791,8.57476373 31.9478248,7.56588816 C31.7890072,6.42026565 31.4684091,5.88032061 30.9895859,5.94546615 C30.6618765,5.99007031 30.3460192,6.40383254 30.0437917,7.18675284 Z M29.1572577,18.2397799 C29.247926,19.2163762 29.331483,19.9764075 29.4067436,20.5198739 C29.6005247,21.9172752 29.8340102,22.9977522 30.106015,23.7618918 C30.3792049,24.5260314 30.7300258,25.0518909 31.1596629,25.3400572 C31.5875222,25.6276366 32.1410133,25.7250615 32.8183585,25.6335056 C33.1674016,25.585967 33.5680011,25.4322 34.021935,25.1727916 C34.4752762,24.9139701 34.8770609,24.6017411 35.2266967,24.2378651 C35.4394411,24.0113229 35.666408,23.8810318 35.9070048,23.8487525 C36.1689353,23.8129518 36.4000504,23.9150718 36.5997576,24.1545257 C36.7994648,24.3945665 36.9250966,24.6991659 36.976653,25.0677371 C37.0276169,25.4368952 36.9950237,25.807227 36.8800588,26.1781458 C36.7650938,26.5502384 36.5600532,26.8747923 36.2649369,27.1523945 C35.2450673,28.1413156 34.0148237,28.7340813 32.5747987,28.9295179 C30.5006885,29.2118153 28.876364,28.6460468 27.7024176,27.2333862 C26.5272861,25.8213126 25.7681617,23.8728153 25.4232668,21.3873074 C25.3053389,20.5339595 25.2182262,19.6653522 25.1631142,18.7826595 L23.8854623,18.9563809 C23.2306361,19.0455892 22.7737393,18.9992244 22.5147718,18.8161126 C22.2563969,18.6341746 22.0946164,18.3102076 22.0300226,17.8442115 C21.8795015,16.7572787 22.2949161,16.146906 23.2774517,16.0130935 L25.1429657,15.7589672 C25.2182262,13.5739505 25.5157129,11.5462221 26.034833,9.6751952 C26.5539532,7.80534205 27.2810769,6.27178076 28.2162043,5.07685891 C29.1513317,3.88135017 30.241721,3.19937611 31.4861871,3.03034983 C32.4023512,2.90534082 33.1721424,3.16650989 33.7961533,3.81385704 C34.4201641,4.46061729 34.8065412,5.32746384 34.9570623,6.41498358 C35.3748474,9.42400338 34.318829,12.2375866 31.7901924,14.8551462 L35.4584044,14.3568708 C35.8068549,14.3093322 36.0676002,14.3427853 36.239455,14.458404 C36.4107173,14.5734357 36.5227192,14.8152372 36.5736831,15.1838084 C36.7591678,16.5231069 35.6184072,17.3606086 33.1519939,17.6963135 L29.1572577,18.2397799 Z" id="Fill-5" fill="#FFFFFF"></path>
                    <path d="M40.4837168,9.80183399 C40.2020249,9.63568211 40.043333,9.3398507 40.0059937,8.91665548 C39.9911678,8.74355648 40.0037973,8.5380376 40.0444312,8.30125669 C40.1904937,7.39465791 40.2865874,6.559846 40.3327124,5.79855775 C40.3782883,5.0372695 40.3607168,4.1937737 40.2805472,3.27096497 C40.1959847,2.30878925 40.3695025,1.54402744 40.8016497,0.977837398 C41.2337969,0.411647353 41.8257343,0.0920799653 42.5785599,0.0185563091 C43.3099704,-0.0526516413 43.8810417,0.0810803632 44.2901264,0.419752323 C44.6992111,0.758424282 44.9314834,1.24530141 44.9863941,1.87980477 C45.0456976,2.55367513 44.9111664,3.46953674 44.5822513,4.62738959 C44.2527871,5.78582137 43.8299748,6.9234118 43.3121669,8.04131873 C42.9678768,8.79334416 42.6894796,9.29585229 42.4758769,9.54884314 C42.2622743,9.80357077 41.9619128,9.9488813 41.5764397,9.98651152 C41.1289175,10.029931 40.7648596,9.9685648 40.4837168,9.80183399" id="Fill-7" fill="#FF5A5A"></path>
                    <path d="M52.5554176,26.4102876 C51.9313664,25.9660693 51.6052379,25.4484068 51.575857,24.8555235 C51.5505893,24.3425994 51.7356893,23.8871275 52.1317444,23.4908848 C52.5272119,23.0952343 53.1301088,22.8772712 53.9374971,22.8364031 C54.2207294,22.8215959 54.5544969,22.8304802 54.9393873,22.8606871 C55.3231024,22.8908939 55.6145613,22.9110318 55.8120012,22.9205085 C55.7644041,22.4081767 55.6145613,21.9313823 55.3630604,21.4877563 C55.1121472,21.0447226 54.8007092,20.6206422 54.4305093,20.2131459 C54.0608971,19.8062419 53.7153772,19.4526441 53.3939497,19.151168 C52.775187,20.3511497 52.1517234,21.3521217 51.5241465,22.1552684 C50.8965696,22.9595997 50.2078803,23.7272089 49.4563158,24.4575039 C49.0808273,24.8324241 48.6747827,25.0314339 48.2381819,25.0533487 C47.8897239,25.0705251 47.6000278,24.9710202 47.3708565,24.754834 C47.1416851,24.53924 47.0182852,24.2632324 47.0018318,23.9274033 C46.9824404,23.5329375 47.1170051,23.1597941 47.405526,22.8079732 L47.8080449,22.3128178 C48.940974,20.9096802 49.7924337,19.7588586 50.3606612,18.8585762 C50.7255725,18.2662851 51.0893085,17.5644201 51.4542199,16.7541659 C51.8191312,15.944504 52.2945148,14.8410657 52.8821337,13.4450356 C53.2529212,12.5554144 54.0938037,12.0780278 55.4036061,12.0116911 C56.0141421,11.9814843 56.4419287,12.0099143 56.6869657,12.0957965 C56.9320028,12.1828633 57.0595161,12.3344898 57.0712684,12.5518606 C57.076557,12.6703188 57.0424751,12.8604443 56.9678475,13.1210524 C56.8932199,13.3822527 56.7850981,13.64523 56.6458324,13.9099841 C56.2885601,14.640279 56.1210888,15.252708 56.1457687,15.7460865 C56.1610468,16.0428243 56.2914982,16.3626615 56.5377105,16.7067826 C56.7845104,17.0503115 57.1611741,17.4773533 57.6677016,17.9861314 C58.4069261,18.7803937 58.9716278,19.4603439 59.3600439,20.0247973 C59.7484599,20.589843 59.9605903,21.2170793 59.9940846,21.9076907 C60.0352179,22.7380828 59.8618704,23.5335298 59.4728667,24.2958084 C59.083863,25.0574947 58.517986,25.684731 57.7781739,26.1769249 C57.0360113,26.6697111 56.1745621,26.9409804 55.1920634,26.9901406 C54.057959,27.0475928 53.1788812,26.8539136 52.5554176,26.4102876" id="Fill-9" fill="#FFFFFF"></path>
                    <g id="Group-13" transform="translate(66.000000, 13.000000)">
                        <mask id="mask-2" fill="white">
                            <use xlink:href="#path-1"></use>
                        </mask>
                        <g id="Clip-12"></g>
                        <path d="M9.23622,10.5925217 C9.73182,10.0471304 10.10442,9.25217391 10.35582,8.20582609 L11.67522,3.052 C10.76082,3.02765217 9.89862,3.30521739 9.08922,3.88530435 C8.27922,4.46721739 7.61682,5.25304348 7.09962,6.244 C6.58302,7.23617391 6.29802,8.30078261 6.24342,9.43721739 C6.21282,10.0666087 6.32922,10.5401739 6.59382,10.8585217 C6.85722,11.1768696 7.23462,11.3473043 7.72422,11.3716522 C8.23722,11.3972174 8.74122,11.137913 9.23622,10.5925217 M6.26322,23.3246087 C7.02342,22.1413043 7.79022,20.236087 8.56482,17.6089565 C6.78402,18.8634783 5.48982,20.0102609 4.68042,21.0486957 C3.87162,22.0871304 3.44742,23.0117391 3.40842,23.8237391 C3.39222,24.1694783 3.44982,24.4561739 3.58422,24.6874783 C3.71862,24.9175652 3.95262,25.0411304 4.28742,25.0581739 C4.84422,25.0855652 5.50242,24.5073043 6.26322,23.3246087 M20.37342,8.56373913 C20.52822,8.82608696 20.59662,9.14991304 20.57742,9.53521739 C20.55522,10.002087 20.45922,10.3636522 20.29182,10.619913 C20.12262,10.8761739 19.86642,11.0977391 19.52262,11.2833913 C17.54922,12.3662609 16.10322,13.1697391 15.18522,13.6944348 L12.98322,14.8972174 C11.93442,19.0570435 10.66782,22.3056522 9.18162,24.6436522 C7.69602,26.9810435 5.89422,28.098 3.77742,27.9933043 C2.64102,27.9366957 1.73142,27.5714783 1.04922,26.8970435 C0.36642,26.2226087 0.05082,25.3667826 0.10002,24.332 C0.16962,22.8906087 0.86802,21.3737391 2.19522,19.7813913 C3.52242,18.1884348 5.95962,16.2692174 9.50682,14.0237391 L9.76482,12.845913 C9.35922,13.3754783 8.84382,13.7729565 8.21682,14.0365217 C7.58982,14.300087 6.97542,14.4175652 6.37362,14.3871304 C4.99242,14.3195652 3.91122,13.8082609 3.13062,12.8544348 C2.35002,11.8993913 1.99542,10.682 2.06682,9.20043478 C2.14422,7.57643478 2.63022,6.05956522 3.52422,4.6486087 C4.41882,3.23886957 5.57262,2.12556522 6.98502,1.30991304 C8.39862,0.494869565 9.87342,0.125391304 11.41002,0.201478261 C11.89962,0.225217391 12.22542,0.328695652 12.38382,0.508869565 C12.54282,0.689043478 12.66702,1.00617391 12.75762,1.45782609 C13.18422,1.39817391 13.67622,1.38113043 14.23422,1.40852174 C14.79102,1.43652174 15.18222,1.53208696 15.40962,1.69582609 C15.63582,1.85956522 15.73902,2.16452174 15.71742,2.61130435 C15.70542,2.85478261 15.68502,3.04713043 15.65562,3.18773913 C15.53622,3.81286957 15.18102,5.39243478 14.59062,7.92704348 C14.47782,8.40973913 14.35842,8.93808696 14.23002,9.51147826 C14.10162,10.0848696 13.96662,10.6941739 13.82382,11.3381739 C15.59862,10.2047826 17.29902,9.21017391 18.92562,8.35434783 C19.22322,8.20704348 19.48302,8.13826087 19.70622,8.1486087 C19.99542,8.16382609 20.21862,8.3013913 20.37342,8.56373913" id="Fill-11" fill="#FFFFFF" mask="url(#mask-2)"></path>
                    </g>
                    <g id="Group-16" transform="translate(85.000000, 15.000000)">
                        <mask id="mask-4" fill="white">
                            <use xlink:href="#path-3"></use>
                        </mask>
                        <g id="Clip-15"></g>
                        <path d="M8.42252174,10.6645 C9.03730435,9.96075 9.42686957,8.87325 9.59365217,7.40075 C9.72208696,6.26075 9.59365217,5.373875 9.20956522,4.740125 C8.82426087,4.106375 8.31721739,3.752 7.68843478,3.677625 C6.87886957,3.581375 6.16730435,3.88075 5.55373913,4.5745 C4.94017391,5.26825 4.55,6.361375 4.3813913,7.853875 C4.24930435,9.03575 4.37591304,9.932625 4.76243478,10.54575 C5.14895652,11.158875 5.67973913,11.505125 6.35417391,11.585125 C7.11808696,11.67575 7.80773913,11.368875 8.42252174,10.6645 M2.31973913,13.580125 C1.45478261,12.85825 0.842434783,11.971375 0.482086957,10.920125 C0.122347826,9.8695 0.00669565217,8.773875 0.135130435,7.63325 C0.31226087,6.058875 0.790086957,4.692 1.56982609,3.5345 C2.34956522,2.377 3.32956522,1.517 4.5086087,0.952625 C5.68826087,0.3895 6.96408696,0.18825 8.33547826,0.351375 C9.66243478,0.508875 10.7635652,0.9495 11.6382609,1.672625 C12.5147826,2.396375 13.1313913,3.28325 13.4917391,4.3345 C13.852087,5.38575 13.9683478,6.481375 13.839913,7.621375 C13.6627826,9.196375 13.1788696,10.562625 12.3887826,11.71825 C11.5968696,12.8745 10.6065217,13.73325 9.41530435,14.29575 C8.22408696,14.85825 6.95434783,15.058875 5.60547826,14.898875 C4.27852174,14.741375 3.18347826,14.302 2.31973913,13.580125" id="Fill-14" fill="#FFFFFF" mask="url(#mask-4)"></path>
                    </g>
                    <path d="M100.975568,25.7480443 C100.793579,25.6215909 100.702584,25.4233518 100.702584,25.1555358 L100.723414,24.986011 C100.961864,23.405068 101.283634,21.6049023 101.690916,19.5860662 C102.097103,17.5672301 102.474785,15.8233887 102.825607,14.355094 C103.049804,13.451698 103.659358,13 104.654816,13 C105.551605,13 106,13.2893518 106,13.8680553 C106,13.9950609 105.97917,14.1364236 105.936962,14.2915913 C105.572435,15.788048 105.088958,17.5987054 104.485983,19.7235635 C103.884103,21.8484216 103.309084,23.6938675 102.762569,25.2610056 C102.608536,25.7132558 102.243461,25.9391048 101.669538,25.9391048 C101.38888,25.9391048 101.157557,25.8750499 100.975568,25.7480443 M99.4730619,30.4919778 C99.1573218,30.1534804 99,29.7084087 99,29.1578673 C99,28.5222873 99.1787001,28.0142651 99.5355521,27.6326963 C99.8929522,27.2522318 100.39397,27.0611713 101.038606,27.0611713 C101.655286,27.0611713 102.12177,27.2130257 102.436962,27.5161825 C102.752153,27.8204436 102.909475,28.267724 102.909475,28.8613369 C102.909475,29.5107218 102.727486,30.029788 102.36296,30.4174311 C101.998434,30.8061785 101.501253,31 100.870869,31 C100.25419,31 99.7882537,30.8304752 99.4730619,30.4919778" id="Fill-1" fill="#FFFFFF"></path>
                </g>
            </g>
        </g>
    </g>
</svg>