<?xml version="1.0" encoding="UTF-8"?>
<svg width="73px" height="47px" viewBox="0 0 73 47" version="1.1" xmlns="http://www.w3.org/2000/svg" xmlns:xlink="http://www.w3.org/1999/xlink">
    <!-- Generator: Sketch 50.2 (55047) - http://www.bohemiancoding.com/sketch -->
    <title>06mountains</title>
    <desc>Created with Sketch.</desc>
    <defs></defs>
    <g id="Page-1" stroke="none" stroke-width="1" fill="none" fill-rule="evenodd">
        <g id="Lets-go" transform="translate(-1030.000000, -3252.000000)" fill="#000000" fill-rule="nonzero">
            <g id="cta" transform="translate(0.000000, 3048.000000)">
                <g id="06mountains" transform="translate(1030.000000, 204.000000)">
                    <path d="M72.9105049,45.6730769 L52.7741169,14.6230769 C52.5951268,14.3576923 52.3266416,14.1807692 52.0581565,14.1807692 C51.7896713,14.1807692 51.4316911,14.3576923 51.342196,14.6230769 L48.209869,19.2230769 L36.6650065,1.44230769 C36.4860164,1.17692308 36.2175312,1 35.9490461,1 C35.6805609,1 35.3225806,1.17692308 35.2330856,1.44230769 L16.7076086,29.9269231 L14.2912421,26.1230769 C14.0227569,25.6807692 13.4857865,25.5923077 13.0383112,25.8576923 C12.9488162,25.9461538 12.8593211,26.0346154 12.7698261,26.1230769 L0.15102291,45.5846154 C-0.117462263,46.0269231 -0.0279672056,46.5576923 0.419508084,46.8230769 C0.509003142,46.9115385 0.687993257,46.9115385 0.866983373,47 L72.1050494,47 C72.6420198,47 73,46.6461538 73,46.1153846 C73,45.9384615 72.9105049,45.7615385 72.9105049,45.6730769 Z M35.9490461,3.56538462 L41.1397594,11.5269231 L35.9490461,16.7461538 L30.7583327,11.5269231 L35.9490461,3.56538462 Z M2.56738947,45.2307692 L13.5752816,28.3346154 L24.5831737,45.2307692 L2.56738947,45.2307692 Z M26.64156,45.2307692 L17.7815493,31.5192308 L29.7738871,13.1192308 L35.3225806,18.6923077 C35.5015708,18.8692308 35.6805609,18.9576923 35.9490461,18.9576923 C36.2175312,18.9576923 36.3965213,18.8692308 36.5755115,18.6923077 L42.124205,13.1192308 L47.4044135,21.3461538 L62.8870585,45.2307692 L26.64156,45.2307692 Z M65.0349399,45.2307692 L49.2838097,20.8153846 L52.0581565,16.7461538 L70.5836334,45.2307692 L65.0349399,45.2307692 Z" id="Shape"></path>
                    <path d="M17,12 C20.3428571,12 23,9.34285714 23,6 C23,2.65714286 20.3428571,0 17,0 C13.6571429,0 11,2.65714286 11,6 C11,9.34285714 13.7428571,12 17,12 Z M17,1.71428571 C19.4,1.71428571 21.2857143,3.6 21.2857143,6 C21.2857143,8.4 19.4,10.2857143 17,10.2857143 C14.6,10.2857143 12.7142857,8.4 12.7142857,6 C12.7142857,3.6 14.6857143,1.71428571 17,1.71428571 Z" id="Shape"></path>
                </g>
            </g>
        </g>
    </g>
</svg>