<?xml version="1.0" encoding="UTF-8"?>
<svg width="23px" height="14px" viewBox="0 0 23 14" version="1.1" xmlns="http://www.w3.org/2000/svg" xmlns:xlink="http://www.w3.org/1999/xlink">
    <!-- Generator: Sketch 50.2 (55047) - http://www.bohemiancoding.com/sketch -->
    <title>plane copy</title>
    <desc>Created with Sketch.</desc>
    <defs></defs>
    <g id="Page-1" stroke="none" stroke-width="1" fill="none" fill-rule="evenodd">
        <g id="Lets-go" transform="translate(-950.000000, -2235.000000)" fill="#BABABA">
            <g id="more-content" transform="translate(46.000000, 1968.000000)">
                <g id="card-big-copy" transform="translate(782.000000, 165.000000)">
                    <g id="plane" transform="translate(122.000000, 102.000000)">
                        <g>
                            <path d="M22.320233,2.52504681 C22.2216638,3.37338375 21.5872915,4.34908854 20.778092,4.89777585 L10.3347575,11.9881431 C10.1119779,12.1078019 9.89219536,12.2328235 9.67374482,12.3568396 C8.38735085,13.087864 7.27711593,13.7186701 6.06631384,13.0422797 L0.783207356,9.77462392 C1.19346813,9.11231109 2.07193235,8.01259022 3.01566534,8.01326058 C3.32535894,8.01359576 3.7689201,8.03906933 4.28241208,8.06822987 C6.04833163,8.16878343 8.46627276,8.30721218 9.43098499,7.67070809 L18.113062,1.68944665 C19.8889717,0.484814901 21.1104299,0.355435976 21.9575918,1.27952327 C22.2562962,1.60531683 22.3785087,2.02462521 22.320233,2.52504681 Z M8.98808984,5.08782209 C8.90084282,5.03721013 8.87620054,4.99899977 8.87187148,4.99832942 C8.87453552,4.99162585 8.88252761,4.97218549 8.90150883,4.95442102 L10.5145796,3.76219088 L13.0583962,4.3591439 L10.6134818,6.04341617 L8.98808984,5.08782209 Z M22.4467745,0.825021141 C20.8183855,-0.952430773 18.5023436,0.61788079 17.7390987,1.13472613 L13.8039919,3.84531516 L10.5169106,3.07440447 C10.4223375,3.05228269 10.3224364,3.0723934 10.2438475,3.13071447 L8.48591999,4.43120729 C8.28511866,4.60717603 8.18688251,4.82906424 8.20852777,5.05665049 C8.22451195,5.22658602 8.314756,5.47026083 8.65308794,5.66734583 L10.0057497,6.46238937 L9.06001867,7.11364132 C8.28545166,7.62545899 5.89947889,7.48904131 4.32004151,7.39921346 C3.79655942,7.36904739 3.34434016,7.34323864 3.01666435,7.34290346 C1.30369241,7.33955167 0.0892272803,9.63619518 0.0379446835,9.73373214 C-0.0429752582,9.88992535 0.00930635023,10.082653 0.15882509,10.1751623 L5.73064593,13.6207979 C6.51686808,14.0608874 7.26046573,14.0742945 7.97775608,13.881902 C8.67273517,13.6952076 9.34240596,13.3147799 10.0014206,12.9403854 C10.2195382,12.8163694 10.4396537,12.6913478 10.6627663,12.571689 C10.6730894,12.5663262 10.6834126,12.560293 10.6927367,12.5539246 L21.1500574,5.45383708 C22.1240937,4.79353531 22.8603653,3.64789499 22.9815787,2.60280823 C23.0621656,1.90965897 22.8773485,1.29494148 22.4467745,0.825021141 Z" id="Fill-1"></path>
                            <path d="M11.4160619,9.10256704 C11.3592197,9.33197566 11.1264236,9.47224918 10.8973409,9.41625405 C10.6679726,9.35940185 10.5277237,9.12656495 10.5839946,8.89744201 C10.611416,8.78659451 10.6805407,8.69260268 10.778515,8.63317927 C10.8139343,8.61203825 10.851353,8.59632533 10.8902,8.58575483 C10.959039,8.5674707 11.031877,8.56661363 11.1027156,8.58404069 C11.2138293,8.61146688 11.3075189,8.68060372 11.3669319,8.7785952 C11.4260592,8.87658668 11.4434832,8.99143384 11.4160619,9.10256704 M11.2395368,8.02951747 C10.9801763,7.96552303 10.7111041,8.00637662 10.483164,8.14436463 C10.2546526,8.28263832 10.093552,8.50147644 10.0295688,8.76059677 C9.9655856,9.02000279 10.0061464,9.28855087 10.1443958,9.51710243 C10.2823596,9.74565398 10.5011593,9.90678283 10.7605197,9.97077727 C10.9290469,10.0124879 11.0987166,10.0082026 11.2558182,9.96649193 C11.5971572,9.87535699 11.8802257,9.60623753 11.9704877,9.23969797 C12.0344709,8.98057764 11.9936245,8.71174387 11.8556607,8.48319231 C11.7176969,8.25464075 11.4988973,8.09351191 11.2395368,8.02951747" id="Fill-4"></path>
                            <path d="M14.4203522,7.08238125 C14.398351,7.19494321 14.3337763,7.2920779 14.2391999,7.35607252 C14.042904,7.48806142 13.776033,7.43549441 13.6440261,7.23979658 C13.5800228,7.14494741 13.5571644,7.03038562 13.5788798,6.91839504 C13.600881,6.80611876 13.6654558,6.70869839 13.7603179,6.64498946 C13.8006057,6.61784888 13.8440365,6.59813625 13.8894674,6.58585157 C13.9511849,6.56928154 14.0169026,6.56728171 14.0817631,6.57985208 C14.1940547,6.60156454 14.2909169,6.66613054 14.3549202,6.7609797 C14.4192093,6.85611456 14.4420676,6.97039066 14.4203522,7.08238125 M14.1911974,6.0190421 C13.9283266,5.96733216 13.6623128,6.021899 13.4408727,6.17102932 C12.983706,6.47900342 12.8622711,7.10152249 13.1702872,7.5589126 C13.4148713,7.92173923 13.8574658,8.07344076 14.2586295,7.96630691 C14.3626349,7.93859496 14.4640687,7.8934559 14.5580736,7.83003266 C14.7797995,7.68061665 14.9298073,7.45406428 14.9812385,7.19208631 C15.032384,6.92982265 14.9780955,6.66327363 14.8289449,6.44186368 C14.6797943,6.22045373 14.4534968,6.07018065 14.1911974,6.0190421" id="Fill-6"></path>
                            <path d="M17.4205123,5.08211313 C17.3985187,5.19436133 17.3339661,5.29118611 17.2391366,5.35545035 C17.1443071,5.41971458 17.029769,5.44199285 16.9178017,5.42057144 C16.8058343,5.39857879 16.7084342,5.33402894 16.6444528,5.23920349 C16.5804715,5.14409242 16.557621,5.03013051 16.579329,4.91788231 C16.6013225,4.80563411 16.6655895,4.70880933 16.7607046,4.64454509 C16.8009786,4.61769692 16.8443945,4.59770361 16.8898099,4.58570761 C16.9515062,4.56914172 17.0172013,4.56685677 17.0820395,4.579424 C17.1942925,4.60141665 17.2911214,4.6659665 17.3551028,4.76079195 C17.4193697,4.8556174 17.4422202,4.96986493 17.4205123,5.08211313 M17.1914362,4.01875425 C16.9292269,3.96762848 16.6624476,4.02189605 16.4419404,4.17098908 C16.2200052,4.31979649 16.0697633,4.54629222 16.0186353,4.8084903 C15.967793,5.07068838 16.0217772,5.33688512 16.1708766,5.55823971 C16.319976,5.77987992 16.5464814,5.9298298 16.808405,5.98124119 C16.9597895,6.01065993 17.1120308,6.00523317 17.2568457,5.96667463 C17.3628148,5.93839837 17.4644994,5.89212812 17.5581864,5.82900636 C17.7798361,5.67991333 17.9297923,5.4534176 17.9812059,5.19150514 C18.0323339,4.92930706 17.9783496,4.66311032 17.8289646,4.44175573 C17.6798652,4.22011552 17.4533598,4.07016564 17.1914362,4.01875425" id="Fill-8"></path>
                        </g>
                    </g>
                </g>
            </g>
        </g>
    </g>
</svg>